# xmcd
#
# Track frame offsets:
#	150
#	1820
#	21737
#	49072
#	74255
#	95615
#	120965
#	139987
#	160927
#	185330
#	206842
#
# Disc length: 3020 seconds
#
# Revision: 1
# Processed by: cddbd v1.5.1PL0 Copyright (c) Steve Scherf et al.
# Submitted via: CDex 1.50Beta5
#
DISCID=980bca0b
DTITLE=Akiko - KISS OF LIFE
DYEAR=1997
DGENRE=
TTITLE0=Monday Morning at The Times Square
TTITLE1=KEEP IT REAL
TTITLE2=What Cha’ Gonna Do For Me
TTITLE3=Turn Around
TTITLE4=LIFE
TTITLE5=Who’s Loving You
TTITLE6=GET CLOSER
TTITLE7=風
TTITLE8=HERE I AM
TTITLE9=Falling In Love
TTITLE10=IF
EXTD=
EXTT0=
EXTT1=
EXTT2=
EXTT3=
EXTT4=
EXTT5=
EXTT6=
EXTT7=
EXTT8=
EXTT9=
EXTT10=
PLAYORDER=
